<svg xmlns="http://www.w3.org/2000/svg" xmlns:xlink="http://www.w3.org/1999/xlink"><symbol id="sprite-DottedLine" fill="none" viewBox="0 0 213 232"><g filter="url(#a)"><path stroke="#fff" stroke-dasharray="9.83 9.83" stroke-linecap="round" stroke-linejoin="round" stroke-opacity=".6" stroke-width="3" d="M40.19 2.3c-7.54 12.14-20.64 39.27-12.67 50.58 9.96 14.13 40.69 10.22 54.08 32.58s-14.76 62.03 25 71.65 59.82 35.1 80.5 22.82" shape-rendering="crispEdges"/></g><defs><filter id="a" width="212.053" height="230.823" x=".154" y=".795" color-interpolation-filters="sRGB" filterUnits="userSpaceOnUse"><feFlood flood-opacity="0" result="BackgroundImageFix"/><feColorMatrix in="SourceAlpha" result="hardAlpha" values="0 0 0 0 0 0 0 0 0 0 0 0 0 0 0 0 0 0 127 0"/><feOffset dy="23.598"/><feGaussianBlur stdDeviation="11.799"/><feComposite in2="hardAlpha" operator="out"/><feColorMatrix values="0 0 0 0 0.215686 0 0 0 0 0.203922 0 0 0 0 0.662745 0 0 0 0.3 0"/><feBlend in2="BackgroundImageFix" result="effect1_dropShadow_9_351"/><feBlend in="SourceGraphic" in2="effect1_dropShadow_9_351" result="shape"/></filter></defs></symbol><use xlink:href="#sprite-DottedLine" width="213" height="232"/><view id="sprite-DottedLine-view" viewBox="0 0 213 232"/><symbol id="sprite-arrow" fill="none" viewBox="0 0 12 12"><path fill="#000" d="M6 0h6v6h-.75v-4.71l-10.72 10.71-.53-.53 10.72-10.72h-4.73z"/></symbol><use xlink:href="#sprite-arrow" width="12" height="12" y="232"/><view id="sprite-arrow-view" viewBox="0 232 12 12"/><symbol id="sprite-close-burger" fill="none" viewBox="0 0 18 18"><path stroke="#000" stroke-linecap="round" stroke-linejoin="round" d="m17.13.88-16.25 16.25m0-16.25 16.25 16.25"/></symbol><use xlink:href="#sprite-close-burger" width="18" height="18" y="244"/><view id="sprite-close-burger-view" viewBox="0 244 18 18"/><symbol id="sprite-dottedline-1" fill="none" viewBox="0 0 213 232"><g filter="url(#a)"><path stroke="#fff" stroke-dasharray="9.83 9.83" stroke-linecap="round" stroke-linejoin="round" stroke-opacity=".6" stroke-width="3" d="M40.19 2.3c-7.54 12.14-20.64 39.27-12.67 50.58 9.96 14.13 40.69 10.22 54.08 32.58s-14.76 62.03 25 71.65 59.82 35.1 80.5 22.82" shape-rendering="crispEdges"/></g><defs><filter id="a" width="212.053" height="230.823" x=".154" y=".795" color-interpolation-filters="sRGB" filterUnits="userSpaceOnUse"><feFlood flood-opacity="0" result="BackgroundImageFix"/><feColorMatrix in="SourceAlpha" result="hardAlpha" values="0 0 0 0 0 0 0 0 0 0 0 0 0 0 0 0 0 0 127 0"/><feOffset dy="23.598"/><feGaussianBlur stdDeviation="11.799"/><feComposite in2="hardAlpha" operator="out"/><feColorMatrix values="0 0 0 0 0.215686 0 0 0 0 0.203922 0 0 0 0 0.662745 0 0 0 0.3 0"/><feBlend in2="BackgroundImageFix" result="effect1_dropShadow_9_351"/><feBlend in="SourceGraphic" in2="effect1_dropShadow_9_351" result="shape"/></filter></defs></symbol><use xlink:href="#sprite-dottedline-1" width="213" height="232" y="262"/><view id="sprite-dottedline-1-view" viewBox="0 262 213 232"/><symbol id="sprite-dottedline-2" fill="none" viewBox="0 0 195 170"><g filter="url(#a)"><path stroke="#fff" stroke-dasharray="9.83 9.83" stroke-linecap="round" stroke-linejoin="round" stroke-opacity=".6" stroke-width="3" d="M37.75 1.66c-6.17 9.6-16.71 30.41-9.55 36.77 8.95 7.94 35.3-.05 47.43 12.91s-16.32 70.26 18.16 69.97 57.72-11.67 75.2-23.64" shape-rendering="crispEdges"/></g><defs><filter id="a" width="193.199" height="169.852" x=".881" y=".156" color-interpolation-filters="sRGB" filterUnits="userSpaceOnUse"><feFlood flood-opacity="0" result="BackgroundImageFix"/><feColorMatrix in="SourceAlpha" result="hardAlpha" values="0 0 0 0 0 0 0 0 0 0 0 0 0 0 0 0 0 0 127 0"/><feOffset dy="23.598"/><feGaussianBlur stdDeviation="11.799"/><feComposite in2="hardAlpha" operator="out"/><feColorMatrix values="0 0 0 0 0.215686 0 0 0 0 0.203922 0 0 0 0 0.662745 0 0 0 0.3 0"/><feBlend in2="BackgroundImageFix" result="effect1_dropShadow_9_352"/><feBlend in="SourceGraphic" in2="effect1_dropShadow_9_352" result="shape"/></filter></defs></symbol><use xlink:href="#sprite-dottedline-2" width="195" height="170" y="494"/><view id="sprite-dottedline-2-view" viewBox="0 494 195 170"/><symbol id="sprite-dottedline-3" fill="none" viewBox="0 0 210 234"><g filter="url(#a)"><path stroke="#fff" stroke-dasharray="9.83 9.83" stroke-linecap="round" stroke-linejoin="round" stroke-opacity=".6" stroke-width="3" d="M169.22 1.67c7.75 12.01 21.32 38.9 13.55 50.35-9.7 14.31-40.5 10.94-53.5 33.53-13 22.58 15.84 61.76-23.74 72.07-39.58 10.32-59.21 36.13-80.1 24.22" shape-rendering="crispEdges"/></g><defs><filter id="a" width="209.583" height="233.088" x=".325" y=".171" color-interpolation-filters="sRGB" filterUnits="userSpaceOnUse"><feFlood flood-opacity="0" result="BackgroundImageFix"/><feColorMatrix in="SourceAlpha" result="hardAlpha" values="0 0 0 0 0 0 0 0 0 0 0 0 0 0 0 0 0 0 127 0"/><feOffset dy="23.598"/><feGaussianBlur stdDeviation="11.799"/><feComposite in2="hardAlpha" operator="out"/><feColorMatrix values="0 0 0 0 0.215686 0 0 0 0 0.203922 0 0 0 0 0.662745 0 0 0 0.3 0"/><feBlend in2="BackgroundImageFix" result="effect1_dropShadow_9_353"/><feBlend in="SourceGraphic" in2="effect1_dropShadow_9_353" result="shape"/></filter></defs></symbol><use xlink:href="#sprite-dottedline-3" width="210" height="234" y="664"/><view id="sprite-dottedline-3-view" viewBox="0 664 210 234"/><symbol id="sprite-dottedline-4" fill="none" viewBox="0 0 310 112"><g filter="url(#a)"><path stroke="#fff" stroke-dasharray="9.83 9.83" stroke-linecap="round" stroke-linejoin="round" stroke-opacity=".6" stroke-width="3" d="M25.48 62.48c2.27-14.13 38.7-34.76 54.83-29.31 16.4 5.54 37.42 19.04 62.2 10.97 24.76-8.06 29.5-56.53 65.84-37.65s68.18 12.86 75.75 35.73" shape-rendering="crispEdges"/></g><defs><filter id="a" width="308.828" height="110.508" x=".377" y=".661" color-interpolation-filters="sRGB" filterUnits="userSpaceOnUse"><feFlood flood-opacity="0" result="BackgroundImageFix"/><feColorMatrix in="SourceAlpha" result="hardAlpha" values="0 0 0 0 0 0 0 0 0 0 0 0 0 0 0 0 0 0 127 0"/><feOffset dy="23.598"/><feGaussianBlur stdDeviation="11.799"/><feComposite in2="hardAlpha" operator="out"/><feColorMatrix values="0 0 0 0 0.215686 0 0 0 0 0.203922 0 0 0 0 0.662745 0 0 0 0.3 0"/><feBlend in2="BackgroundImageFix" result="effect1_dropShadow_9_354"/><feBlend in="SourceGraphic" in2="effect1_dropShadow_9_354" result="shape"/></filter></defs></symbol><use xlink:href="#sprite-dottedline-4" width="310" height="112" y="898"/><view id="sprite-dottedline-4-view" viewBox="0 898 310 112"/><symbol id="sprite-dottedline-5" fill="none" viewBox="0 0 259 186"><g filter="url(#a)"><path stroke="#fff" stroke-dasharray="9.83 9.83" stroke-linecap="round" stroke-linejoin="round" stroke-opacity=".6" stroke-width="3" d="M232.57 1.97c1.47 14.22 3.82 50.08-8.28 56.73-15.13 8.3-41.04-8.72-62.85 5.45s-15.63 80.29-55.57 71.44-67.33-12.94-80.56-33.05" shape-rendering="crispEdges"/></g><defs><filter id="a" width="258.675" height="184.552" x=".213" y=".472" color-interpolation-filters="sRGB" filterUnits="userSpaceOnUse"><feFlood flood-opacity="0" result="BackgroundImageFix"/><feColorMatrix in="SourceAlpha" result="hardAlpha" values="0 0 0 0 0 0 0 0 0 0 0 0 0 0 0 0 0 0 127 0"/><feOffset dy="23.598"/><feGaussianBlur stdDeviation="11.799"/><feComposite in2="hardAlpha" operator="out"/><feColorMatrix values="0 0 0 0 0.215686 0 0 0 0 0.203922 0 0 0 0 0.662745 0 0 0 0.3 0"/><feBlend in2="BackgroundImageFix" result="effect1_dropShadow_9_355"/><feBlend in="SourceGraphic" in2="effect1_dropShadow_9_355" result="shape"/></filter></defs></symbol><use xlink:href="#sprite-dottedline-5" width="259" height="186" y="1010"/><view id="sprite-dottedline-5-view" viewBox="0 1010 259 186"/><symbol id="sprite-logo" fill="none" viewBox="0 0 86 35"><path fill="currentColor" d="M.28 14v-14h11.56v2.58h-8.76v3.12h8.44v2.58h-8.44v3.12h8.76v2.6zm13.98-10h2.5l.26 1.28a6 6 0 0 1 4.16-1.58c3.32 0 5.82 2.26 5.82 5.28 0 3.06-2.48 5.32-5.82 5.32-1.66 0-3.1-.56-4.12-1.56v5.26h-2.8zm9.94 4.98c0-1.64-1.52-2.82-3.62-2.82s-3.52 1.16-3.52 2.82c0 1.68 1.42 2.84 3.52 2.84 2.14 0 3.62-1.2 3.62-2.84m6.95.04c0 1.6 1.42 2.72 3.32 2.72 1.52 0 2.64-.6 3.1-1.64h2.9c-.52 2.54-2.9 4.2-6 4.2-3.5 0-6.12-2.26-6.12-5.28 0-3.06 2.6-5.32 6.12-5.32 3.08 0 5.44 1.62 5.98 4.18h-2.9c-.46-1.02-1.58-1.64-3.08-1.64-1.92 0-3.32 1.16-3.32 2.78m-30.87 24.98v-14h2.8v5.7h7.66v-5.7h2.8v14h-2.8v-5.72h-7.66v5.72zm24.52-5.34v-4.66h2.8v10h-2.52l-.26-1.66a4.6 4.6 0 0 1-3.76 1.96c-3 0-5.1-2.32-5.1-5.64v-4.66h2.8v4.66a2.9 2.9 0 0 0 3.04 3.04c1.76 0 3-1.26 3-3.04m8.12.68v4.66h-2.8v-10h2.5l.28 1.64a4.6 4.6 0 0 1 3.76-1.94c3 0 5.1 2.3 5.1 5.64v4.66h-2.8v-4.66c0-1.8-1.28-3.06-3.06-3.06s-2.98 1.26-2.98 3.06m15.58-2.76v2.74q0 2.39 2.88 2.38v2.6c-3.7 0-5.68-1.84-5.68-4.98v-2.74h-2.04v-1.12l3.72-3.7h1.12v2.24h2.88v2.58zm16.28 3.12h-9.08c.3 1.44 1.58 2.4 3.26 2.4 1.2 0 2.16-.44 2.68-1.16h2.84c-.76 2.04-2.9 3.36-5.64 3.36-3.44 0-6.02-2.26-6.02-5.28 0-3.06 2.56-5.32 6.02-5.32 3.42 0 5.98 2.14 5.98 5.32q.01.34-.04.68m-9.08-1.4h6.24c-.28-1.42-1.46-2.34-3.1-2.34-1.62 0-2.84.94-3.14 2.34m18.56-4.6v2.96c-2.98 0-4.72 1.7-4.72 4.5v2.84h-2.8v-10h2.5l.3 2.6a5.2 5.2 0 0 1 4.72-2.9m11.09 7.46c0 1.8-1.9 3.14-4.82 3.14-3 0-5.04-1.32-5.26-3.4h2.8c.16.88 1.04 1.4 2.46 1.4 1.14 0 2-.5 2-1.14 0-2.2-7-.26-7-4.28 0-1.76 1.8-3.18 4.72-3.18 3 0 4.78 1.3 4.94 3.38h-2.8c-.12-.8-.84-1.36-2.16-1.36-1.1 0-1.9.48-1.9 1.14 0 2.14 7.02-.02 7.02 4.3"/></symbol><use xlink:href="#sprite-logo" width="86" height="35" y="1196"/><view id="sprite-logo-view" viewBox="0 1196 86 35"/><symbol id="sprite-number-1" fill="none" viewBox="0 0 21 42"><g filter="url(#a)"><path fill="#F6FFD2" d="M6 5.46v-2.9a10.5 10.5 0 0 0 6.74-2.56h2.26v26h-2.74v-22.17a13 13 0 0 1-6.26 1.63"/></g><defs><filter id="a" width="21" height="42" x="0" y="0" color-interpolation-filters="sRGB" filterUnits="userSpaceOnUse"><feFlood flood-opacity="0" result="BackgroundImageFix"/><feColorMatrix in="SourceAlpha" result="hardAlpha" values="0 0 0 0 0 0 0 0 0 0 0 0 0 0 0 0 0 0 127 0"/><feOffset dy="10"/><feGaussianBlur stdDeviation="3"/><feComposite in2="hardAlpha" operator="out"/><feColorMatrix values="0 0 0 0 1 0 0 0 0 1 0 0 0 0 1 0 0 0 0.15 0"/><feBlend in2="BackgroundImageFix" result="effect1_dropShadow_9_282"/><feBlend in="SourceGraphic" in2="effect1_dropShadow_9_282" result="shape"/></filter></defs></symbol><use xlink:href="#sprite-number-1" width="21" height="42" y="1231"/><view id="sprite-number-1-view" viewBox="0 1231 21 42"/><symbol id="sprite-number-2" fill="none" viewBox="0 0 17 26"><path fill="#F6FFD2" d="M8.57 0c4.87 0 8.11 2.87 8.11 7.82 0 9.27-13.27 5.16-13.66 15.27h13.98v2.91h-17v-1.93c0-13.01 13.84-8.4 13.84-16.4 0-3.12-2.14-4.9-5.27-4.9-3.6 0-5.72 2.43-5.72 6.9h-2.85c0-6.03 3.38-9.67 8.57-9.67"/></symbol><use xlink:href="#sprite-number-2" width="17" height="26" y="1273"/><view id="sprite-number-2-view" viewBox="0 1273 17 26"/><symbol id="sprite-number-3" fill="none" viewBox="0 0 17 25"><path fill="#F6FFD2" d="M12.25 2.8h-10.96v-2.8h14.73v2.34l-6.86 7.63h.27c4.08 0 7.57 2.27 7.57 7.27 0 4.44-3.46 7.76-8.11 7.76-4.95 0-8.89-4.2-8.89-9.61h2.72c0 3.98 2.64 6.95 6.1 6.95 3.12 0 5.46-2.2 5.46-5.07 0-3.04-2.13-5.1-5.39-5.1h-1.73l-1.46-1.71z"/></symbol><use xlink:href="#sprite-number-3" width="17" height="25" y="1299"/><view id="sprite-number-3-view" viewBox="0 1299 17 25"/><symbol id="sprite-number-4" fill="none" viewBox="0 0 17 25"><path fill="#F6FFD2" d="M0 19.43v-2.36l11.31-17.07.25.04v-.04h2.46v16.57h2.98v2.86h-2.98v5.57h-2.46v-5.57zm3.07-2.86h8.49v-13.25z"/></symbol><use xlink:href="#sprite-number-4" width="17" height="25" y="1324"/><view id="sprite-number-4-view" viewBox="0 1324 17 25"/><symbol id="sprite-number-5" fill="none" viewBox="0 0 17 25"><path fill="#F6FFD2" d="M8.82 25c-4.9 0-8.82-4.13-8.82-9.47h2.73c0 3.95 2.59 6.81 6.1 6.81 3.23 0 5.44-2.2 5.44-5.35 0-3.25-2.35-5.28-6.06-5.28h-5.86l-1.26-1.46.54-10.25h13.53v2.8h-11.14l-.34 6.68h4.8c5.22 0 8.52 2.93 8.52 7.51s-3.44 8.01-8.18 8.01"/></symbol><use xlink:href="#sprite-number-5" width="17" height="25" y="1349"/><view id="sprite-number-5-view" viewBox="0 1349 17 25"/><symbol id="sprite-number-6" fill="none" viewBox="0 0 17 25"><path fill="#F6FFD2" d="M0 16.19c0-1.96.62-3.81 1.81-5.67l6.97-10.52h3.07l-4.89 7.48a7 7 0 0 1 1.56-.14c4.89 0 8.48 3.67 8.48 8.85 0 5.2-3.6 8.81-8.48 8.81-4.96 0-8.52-3.74-8.52-8.81m2.59 0c0 3.53 2.53 6.15 5.93 6.15 3.46 0 5.89-2.48 5.89-6.15 0-3.64-2.46-6.19-5.9-6.19s-5.92 2.62-5.92 6.19"/></symbol><use xlink:href="#sprite-number-6" width="17" height="25" y="1374"/><view id="sprite-number-6-view" viewBox="0 1374 17 25"/><symbol id="sprite-open-burger" fill="none" viewBox="0 0 26 22"><path fill="#fff" d="M.5 1a.83.83 0 0 1 .83-.83h23.34a.83.83 0 0 1 0 1.66h-23.34a.83.83 0 0 1-.83-.83m0 10a.83.83 0 0 1 .83-.83h23.34a.83.83 0 0 1 0 1.66h-23.34a.83.83 0 0 1-.83-.83m.83 9.17a.83.83 0 0 0 0 1.66h23.34a.83.83 0 0 0 0-1.66z"/></symbol><use xlink:href="#sprite-open-burger" width="26" height="22" y="1399"/><view id="sprite-open-burger-view" viewBox="0 1399 26 22"/><symbol id="sprite-switch" fill="none" viewBox="0 0 18 11"><path stroke="#F6FFD2" stroke-linecap="round" stroke-linejoin="round" d="M1 5.5h16m0 0-6 4.5m6-4.5-6-4.5"/></symbol><use xlink:href="#sprite-switch" width="18" height="11" y="1421"/><view id="sprite-switch-view" viewBox="0 1421 18 11"/><symbol id="sprite-vector" fill="none" viewBox="0 0 17 37"><path fill="#fff" d="M8.05 0a8.05 8.05 0 0 0-8.05 8.05v28.52c0 .39.52.53.72.19l14.29-24.68a8.05 8.05 0 0 0-6.96-12.08"/></symbol><use xlink:href="#sprite-vector" width="17" height="37" y="1432"/><view id="sprite-vector-view" viewBox="0 1432 17 37"/></svg>